<?xml version="1.0" encoding="utf-8"?>
<!-- Generator: Adobe Illustrator 21.0.2, SVG Export Plug-In . SVG Version: 6.00 Build 0)  -->
<svg version="1.1" id="Layer_1" xmlns="http://www.w3.org/2000/svg" xmlns:xlink="http://www.w3.org/1999/xlink" x="0px" y="0px"
	 viewBox="0 0 432 576" style="enable-background:new 0 0 432 576;" xml:space="preserve">
<style type="text/css">
	.st0{fill:#B42024;}
</style>
<g>
	<path class="st0" d="M91.3,119.1c-6.5-6-16.8-1.3-20.5,6.6c-4.5,9.4-1.1,19.2,5.4,25.1c0.4,0.4,0.8,0.7,1.2,1.1
		c8.3-7.6,16.6-15.2,24.9-22.8C98.6,125.8,95,122.4,91.3,119.1z"/>
	<path class="st0" d="M128.4,150.8c6.5-5.9,9.8-15.9,5.4-25.1c-3.7-7.8-14-12.6-20.5-6.6c-3.7,3.3-7.3,6.7-11,10
		c8.3,7.6,16.6,15.2,24.9,22.8C127.6,151.6,128,151.2,128.4,150.8z"/>
	<path class="st0" d="M102.3,129.1c-8.3,7.6-16.6,15.2-24.9,22.8c8.3,7.6,16.6,15.2,24.9,22.8c8.3-7.6,16.6-15.2,24.9-22.8
		C118.9,144.3,110.6,136.7,102.3,129.1z"/>
</g>
</svg>
